<svg xmlns="http://www.w3.org/2000/svg" xmlns:xlink="http://www.w3.org/1999/xlink" width="500" zoomAndPan="magnify" viewBox="0 0 375 374.999991" height="500" preserveAspectRatio="xMidYMid meet" version="1.0"><defs><clipPath id="7565150468"><path d="M 103 169.542969 L 272 169.542969 L 272 205.542969 L 103 205.542969 Z M 103 169.542969 " clip-rule="nonzero"/></clipPath><clipPath id="56f6ae9a8d"><path d="M 107.90625 117.15625 L 266.90625 117.15625 L 266.90625 258 L 107.90625 258 Z M 107.90625 117.15625 " clip-rule="nonzero"/></clipPath></defs><g clip-path="url(#7565150468)"><path fill="#590707" d="M 260 302.867188 C 237.347656 290.667969 215.804688 274.917969 188.292969 252.289062 C 188.859375 251.824219 189.425781 251.359375 189.992188 250.890625 C 216.457031 272.769531 240.355469 290.140625 258.398438 299.675781 C 263.808594 302.535156 268.074219 303.082031 270.566406 303.757812 C 267.230469 303.972656 260.253906 301.617188 260 302.867188 Z M 186.722656 252.289062 C 159.210938 274.917969 137.667969 290.667969 115.019531 302.867188 C 114.761719 301.617188 107.785156 303.972656 104.453125 303.757812 C 106.941406 303.082031 111.207031 302.535156 116.617188 299.675781 C 134.660156 290.140625 158.558594 272.769531 185.023438 250.890625 C 185.285156 250.675781 185.546875 250.457031 185.808594 250.238281 C 186.375 249.769531 186.941406 249.300781 187.507812 248.828125 C 188.507812 248 189.511719 247.160156 190.515625 246.316406 C 199.433594 238.835938 208.609375 230.882812 217.921875 222.582031 C 217.996094 222.511719 217.667969 220.757812 217.480469 219.574219 L 220.910156 223.445312 C 210.574219 232.304688 201.085938 240.371094 192.222656 247.738281 C 191.210938 248.582031 190.203125 249.414062 189.207031 250.238281 C 188.636719 250.710938 188.070312 251.175781 187.507812 251.640625 C 187.246094 251.855469 186.984375 252.074219 186.722656 252.289062 Z M 154.105469 223.445312 L 157.535156 219.574219 C 157.347656 220.757812 157.019531 222.511719 157.09375 222.582031 C 166.410156 230.882812 175.582031 238.835938 184.5 246.316406 C 183.929688 246.792969 183.359375 247.265625 182.792969 247.738281 C 173.933594 240.371094 164.441406 232.304688 154.105469 223.445312 Z M 153.441406 223.433594 C 152.832031 222.910156 152.214844 222.382812 151.597656 221.851562 C 150.90625 221.253906 150.207031 220.65625 149.503906 220.050781 C 150.945312 218.34375 152.382812 216.726562 153.90625 215.125 C 154.109375 215.308594 154.316406 215.5 154.53125 215.695312 C 155.539062 216.613281 156.628906 217.609375 157.574219 218.457031 C 157.601562 218.484375 157.632812 218.511719 157.660156 218.535156 C 157.683594 218.558594 157.707031 218.578125 157.726562 218.597656 L 157.660156 218.675781 L 153.71875 223.121094 Z M 148.765625 220.234375 C 148.765625 220.234375 148.761719 220.238281 148.761719 220.238281 C 147.890625 221.289062 147.003906 222.394531 146.09375 223.5625 L 145.476562 223.023438 C 146.28125 222.023438 147.082031 221.039062 147.867188 220.085938 C 148.863281 218.875 149.835938 217.714844 150.773438 216.632812 L 151.167969 217.023438 L 151.351562 217.207031 C 151.089844 217.503906 150.828125 217.804688 150.5625 218.109375 C 149.972656 218.789062 149.375 219.496094 148.765625 220.234375 Z M 147.167969 218.769531 L 145.585938 217.332031 L 147.527344 215.175781 L 149.648438 212.820312 L 149.910156 212.527344 L 150.5 211.878906 L 150.703125 211.648438 L 150.847656 211.488281 L 152.757812 213.207031 L 152.359375 213.652344 L 151.78125 214.308594 L 151.480469 214.648438 L 149.453125 216.929688 L 147.53125 219.09375 Z M 144.414062 211.023438 L 140.460938 211.878906 L 141.492188 208.667969 L 145.617188 207.515625 Z M 139.730469 206.777344 L 135.964844 207.75 C 135.925781 207.714844 136.867188 204.46875 136.867188 204.46875 L 140.914062 203.335938 Z M 135.105469 202.574219 L 131.761719 203.441406 L 132.898438 199.910156 L 136.355469 198.941406 Z M 131.136719 198.015625 L 127.039062 199.074219 L 128.203125 195.464844 L 132.1875 194.351562 C 132.242188 194.402344 131.136719 198.015625 131.136719 198.015625 Z M 126.441406 193.570312 L 122.386719 194.625 L 123.542969 191.035156 L 127.625 189.890625 C 127.644531 189.914062 126.441406 193.570312 126.441406 193.570312 Z M 121.785156 189.140625 L 117.65625 190.210938 L 117.554688 190.09375 C 117.554688 190.058594 117.5625 190.019531 117.566406 189.976562 L 118.851562 185.988281 L 122.628906 184.933594 C 122.777344 185.082031 121.785156 189.140625 121.785156 189.140625 Z M 117.09375 184.089844 L 113.234375 185.09375 L 114.398438 181.472656 L 118.171875 180.417969 C 118.21875 180.464844 117.09375 184.089844 117.09375 184.089844 Z M 112.636719 179.578125 L 109.085938 180.496094 L 110.230469 176.929688 L 113.828125 175.925781 C 113.828125 175.984375 112.636719 179.578125 112.636719 179.578125 Z M 108.472656 175.035156 L 105.753906 175.742188 L 106.027344 174.894531 L 106.589844 173.148438 L 108.355469 172.65625 L 109.390625 172.363281 Z M 103.960938 174.578125 L 103.960938 174.582031 C 103.6875 174.324219 103.539062 174.054688 103.539062 173.746094 C 103.539062 173.082031 104.21875 172.234375 105.773438 170.964844 C 105.226562 171.554688 104.851562 172.089844 104.582031 172.5625 C 104.519531 172.742188 104.5 172.90625 104.582031 172.976562 C 105.9375 171.503906 107.273438 170.441406 108.097656 170.707031 L 107.886719 170.90625 L 107.066406 171.675781 L 105.019531 173.589844 Z M 146.25 212.894531 L 149.773438 211.910156 L 145.722656 216.40625 Z M 217.355469 218.535156 C 217.382812 218.511719 217.414062 218.484375 217.441406 218.457031 C 218.386719 217.609375 219.476562 216.613281 220.484375 215.695312 C 220.699219 215.5 220.90625 215.308594 221.109375 215.125 C 222.632812 216.726562 224.074219 218.34375 225.511719 220.050781 C 224.808594 220.65625 224.113281 221.253906 223.417969 221.851562 C 222.800781 222.382812 222.1875 222.910156 221.574219 223.433594 L 221.296875 223.121094 L 217.355469 218.675781 L 217.289062 218.597656 C 217.308594 218.578125 217.332031 218.558594 217.355469 218.535156 Z M 224.167969 211.488281 L 224.3125 211.648438 L 224.519531 211.878906 L 225.105469 212.527344 L 225.367188 212.820312 L 227.488281 215.175781 L 229.433594 217.332031 L 227.847656 218.769531 L 227.484375 219.09375 L 225.5625 216.929688 L 223.535156 214.648438 L 223.234375 214.308594 L 222.65625 213.652344 L 222.257812 213.207031 Z M 228.769531 212.894531 L 229.292969 216.40625 L 225.242188 211.910156 Z M 233.523438 208.667969 L 234.558594 211.878906 L 230.605469 211.023438 L 229.402344 207.515625 Z M 238.148438 204.46875 C 238.148438 204.46875 239.089844 207.714844 239.050781 207.75 L 235.285156 206.777344 L 234.101562 203.335938 Z M 242.117188 199.910156 L 243.253906 203.441406 L 239.910156 202.574219 L 238.660156 198.941406 Z M 242.828125 194.351562 L 246.8125 195.464844 L 247.976562 199.074219 L 243.878906 198.015625 C 243.878906 198.015625 242.777344 194.402344 242.828125 194.351562 Z M 251.472656 191.035156 L 252.628906 194.625 L 248.574219 193.570312 C 248.574219 193.570312 247.371094 189.914062 247.390625 189.890625 Z M 252.386719 184.933594 L 256.164062 185.988281 L 257.449219 189.976562 C 257.453125 190.019531 257.460938 190.058594 257.464844 190.09375 L 257.359375 190.210938 L 253.230469 189.140625 C 253.230469 189.140625 252.238281 185.082031 252.386719 184.933594 Z M 256.84375 180.417969 L 260.617188 181.472656 L 261.785156 185.09375 L 257.921875 184.089844 C 257.921875 184.089844 256.796875 180.464844 256.84375 180.417969 Z M 264.785156 176.929688 L 265.929688 180.496094 L 262.378906 179.578125 C 262.378906 179.578125 261.1875 175.984375 261.1875 175.925781 Z M 266.660156 172.65625 L 268.425781 173.148438 L 268.988281 174.894531 L 269.261719 175.742188 L 266.542969 175.035156 L 265.625 172.363281 Z M 270.433594 172.976562 C 270.515625 172.90625 270.496094 172.742188 270.433594 172.5625 C 270.164062 172.089844 269.789062 171.554688 269.242188 170.964844 C 271.527344 172.828125 271.921875 173.78125 271.054688 174.582031 L 271.054688 174.578125 L 270 173.589844 L 267.949219 171.675781 L 267.132812 170.90625 L 266.917969 170.707031 C 267.742188 170.441406 269.082031 171.503906 270.433594 172.976562 Z M 229.539062 223.023438 L 228.921875 223.5625 C 228.011719 222.394531 227.125 221.289062 226.253906 220.238281 C 226.253906 220.238281 226.25 220.234375 226.25 220.234375 C 225.640625 219.496094 225.042969 218.789062 224.453125 218.109375 C 224.1875 217.804688 223.925781 217.503906 223.667969 217.207031 L 223.847656 217.023438 L 224.242188 216.632812 C 225.179688 217.714844 226.152344 218.875 227.152344 220.085938 C 227.933594 221.039062 228.734375 222.023438 229.539062 223.023438 Z M 193.011719 248.398438 C 201.886719 241.046875 211.351562 233.019531 221.605469 224.226562 C 223.027344 223.011719 224.464844 221.777344 225.914062 220.53125 C 226.867188 221.667969 227.820312 222.847656 228.804688 224.089844 L 230.207031 222.910156 C 229.300781 221.804688 228.417969 220.742188 227.558594 219.71875 L 229.984375 217.53125 L 229.636719 217.144531 C 229.785156 217.011719 229.929688 216.875 230.078125 216.742188 C 230.273438 216.566406 230.46875 216.386719 230.664062 216.210938 C 232.355469 215.25 233.359375 214.085938 234.53125 212.65625 C 234.605469 212.589844 234.675781 212.523438 234.746094 212.460938 C 234.847656 212.363281 234.949219 212.269531 235.050781 212.175781 C 235.1875 212.050781 235.324219 211.921875 235.460938 211.800781 C 236.925781 210.746094 238.03125 209.847656 238.957031 208.542969 C 239.085938 208.421875 239.21875 208.300781 239.347656 208.179688 C 239.445312 208.085938 239.539062 207.996094 239.636719 207.902344 C 239.8125 207.742188 239.980469 207.578125 240.15625 207.417969 C 241.347656 206.636719 242.277344 205.917969 243.0625 204.667969 C 243.214844 204.527344 243.363281 204.382812 243.511719 204.242188 C 243.714844 204.050781 243.917969 203.855469 244.121094 203.664062 C 244.332031 203.460938 244.542969 203.257812 244.757812 203.054688 C 245.832031 202.324219 246.546875 201.515625 247.375 200.539062 C 247.648438 200.277344 247.921875 200.011719 248.195312 199.75 C 248.359375 199.585938 248.527344 199.425781 248.691406 199.265625 C 248.871094 199.089844 249.046875 198.917969 249.222656 198.746094 C 250.816406 197.71875 251.933594 196.621094 253.003906 195.035156 C 253.019531 195.023438 253.035156 195.007812 253.050781 194.992188 C 254.734375 193.695312 256.152344 192.417969 257.734375 190.304688 C 259.664062 188.828125 260.664062 187.597656 262.121094 185.804688 C 262.265625 185.652344 262.410156 185.5 262.554688 185.351562 C 264.042969 184.019531 265.082031 182.988281 266.164062 181.542969 C 266.191406 181.515625 266.214844 181.488281 266.242188 181.457031 C 266.464844 181.222656 266.683594 180.984375 266.902344 180.75 C 266.96875 180.679688 267.03125 180.609375 267.097656 180.539062 C 268.457031 179.300781 269.652344 178.046875 270.332031 177.007812 C 270.574219 176.742188 270.816406 176.472656 271.054688 176.207031 C 271.078125 176.183594 271.101562 176.160156 271.121094 176.136719 C 271.402344 175.824219 271.46875 175.394531 271.339844 175.027344 L 271.464844 174.898438 C 272.125 174.210938 272.101562 173.117188 271.417969 172.457031 L 269.074219 170.203125 C 268.386719 169.542969 267.292969 169.5625 266.632812 170.25 L 266.441406 170.449219 C 266.335938 170.421875 266.230469 170.402344 266.117188 170.40625 C 265.824219 170.417969 265.542969 170.546875 265.34375 170.761719 C 265.277344 170.832031 265.210938 170.902344 265.144531 170.972656 C 264.980469 171.148438 264.816406 171.324219 264.652344 171.5 C 263.921875 171.792969 261.539062 173.867188 260.953125 175.421875 C 260.355469 175.789062 257.613281 177.988281 256.519531 180.011719 C 254.800781 181.273438 253.285156 182.898438 251.753906 184.835938 C 249.71875 186.617188 248.371094 187.816406 246.824219 189.734375 C 245.101562 190.992188 243.742188 192.101562 242.257812 194.191406 C 240.613281 195.539062 239.324219 196.46875 238.332031 197.984375 C 236.441406 199.527344 235.242188 200.652344 233.765625 202.359375 C 231.707031 204.027344 230.359375 205.148438 229.144531 206.765625 C 227.351562 208.164062 226.136719 209.277344 224.921875 210.769531 C 224.738281 210.945312 224.554688 211.121094 224.367188 211.296875 L 224.046875 210.945312 L 221.671875 213.082031 C 220.777344 212.148438 219.898438 211.273438 219.019531 210.453125 L 217.621094 211.632812 C 218.699219 212.660156 219.71875 213.675781 220.703125 214.699219 C 219.292969 215.96875 217.894531 217.230469 216.503906 218.476562 C 206.378906 227.558594 196.773438 235.964844 187.507812 243.785156 C 178.242188 235.964844 168.636719 227.558594 158.511719 218.476562 C 157.121094 217.230469 155.722656 215.96875 154.3125 214.699219 C 155.296875 213.675781 156.316406 212.660156 157.398438 211.632812 L 155.996094 210.453125 C 155.117188 211.273438 154.238281 212.148438 153.34375 213.082031 L 150.96875 210.945312 L 150.648438 211.296875 C 150.460938 211.121094 150.277344 210.945312 150.09375 210.769531 C 148.878906 209.277344 147.664062 208.164062 145.871094 206.765625 C 144.660156 205.148438 143.308594 204.027344 141.25 202.359375 C 139.773438 200.652344 138.578125 199.527344 136.683594 197.984375 C 135.695312 196.46875 134.40625 195.539062 132.761719 194.191406 C 131.273438 192.101562 129.917969 190.992188 128.195312 189.734375 C 126.644531 187.816406 125.296875 186.617188 123.261719 184.835938 C 121.730469 182.898438 120.214844 181.273438 118.496094 180.011719 C 117.402344 177.988281 114.664062 175.789062 114.066406 175.421875 C 113.476562 173.867188 111.09375 171.792969 110.363281 171.5 C 110.199219 171.324219 110.035156 171.148438 109.871094 170.972656 C 109.804688 170.902344 109.738281 170.832031 109.671875 170.761719 C 109.472656 170.546875 109.191406 170.417969 108.898438 170.40625 C 108.785156 170.402344 108.679688 170.421875 108.574219 170.449219 L 108.382812 170.25 C 107.722656 169.5625 106.628906 169.542969 105.941406 170.203125 L 103.597656 172.457031 C 102.914062 173.117188 102.890625 174.210938 103.550781 174.898438 L 103.675781 175.027344 C 103.546875 175.394531 103.613281 175.824219 103.894531 176.136719 C 103.914062 176.160156 103.9375 176.183594 103.960938 176.207031 C 104.199219 176.472656 104.441406 176.742188 104.683594 177.007812 C 105.363281 178.046875 106.558594 179.300781 107.917969 180.539062 C 107.984375 180.609375 108.046875 180.679688 108.113281 180.75 C 108.332031 180.984375 108.550781 181.222656 108.773438 181.457031 C 108.800781 181.488281 108.828125 181.515625 108.851562 181.542969 C 109.933594 182.988281 110.972656 184.019531 112.460938 185.351562 C 112.605469 185.5 112.75 185.652344 112.898438 185.804688 C 114.351562 187.597656 115.351562 188.828125 117.28125 190.304688 C 118.867188 192.417969 120.28125 193.695312 121.964844 194.992188 C 121.980469 195.007812 121.996094 195.023438 122.011719 195.035156 C 123.082031 196.621094 124.199219 197.71875 125.792969 198.746094 C 125.96875 198.917969 126.144531 199.089844 126.324219 199.265625 C 126.488281 199.425781 126.65625 199.585938 126.820312 199.75 C 127.09375 200.011719 127.367188 200.277344 127.640625 200.539062 C 128.46875 201.515625 129.183594 202.324219 130.257812 203.054688 C 130.472656 203.257812 130.683594 203.460938 130.894531 203.664062 C 131.097656 203.855469 131.300781 204.050781 131.503906 204.242188 C 131.652344 204.382812 131.800781 204.527344 131.953125 204.667969 C 132.738281 205.917969 133.667969 206.636719 134.859375 207.417969 C 135.035156 207.578125 135.203125 207.742188 135.378906 207.902344 C 135.476562 207.996094 135.570312 208.085938 135.667969 208.179688 C 135.796875 208.300781 135.929688 208.421875 136.058594 208.542969 C 136.984375 209.847656 138.089844 210.746094 139.554688 211.800781 C 139.695312 211.921875 139.828125 212.050781 139.964844 212.175781 C 140.066406 212.269531 140.167969 212.363281 140.269531 212.460938 C 140.34375 212.523438 140.414062 212.589844 140.484375 212.65625 C 141.65625 214.085938 142.660156 215.25 144.351562 216.210938 C 144.546875 216.386719 144.742188 216.566406 144.9375 216.742188 C 145.085938 216.875 145.230469 217.011719 145.378906 217.144531 L 145.03125 217.53125 L 147.457031 219.71875 C 146.597656 220.742188 145.714844 221.804688 144.808594 222.910156 L 146.210938 224.089844 C 147.195312 222.847656 148.152344 221.667969 149.101562 220.53125 C 150.550781 221.777344 151.988281 223.011719 153.410156 224.226562 C 163.664062 233.019531 173.132812 241.046875 182.003906 248.398438 C 154.554688 271.207031 129.863281 288.902344 103.070312 304.054688 C 105.765625 305.429688 111.421875 305.625 114.425781 304.035156 C 137.304688 291.921875 159.480469 275.894531 187.507812 252.933594 C 215.535156 275.894531 237.710938 291.921875 260.59375 304.035156 C 263.59375 305.625 269.25 305.429688 271.945312 304.054688 C 245.152344 288.902344 220.464844 271.207031 193.011719 248.398438 " fill-opacity="1" fill-rule="nonzero"/></g><g clip-path="url(#56f6ae9a8d)"><path fill="#8f0c0c" d="M 154.667969 150.71875 C 159.480469 127.414062 182.1875 122.597656 182.1875 122.597656 C 162.9375 133.125 154.667969 150.71875 154.667969 150.71875 Z M 159.09375 164.882812 C 159.636719 162.539062 162.199219 161.296875 164.378906 162.316406 L 183.859375 171.433594 C 186.164062 172.511719 188.832031 172.511719 191.140625 171.433594 L 210.617188 162.316406 C 212.800781 161.296875 215.359375 162.539062 215.902344 164.882812 C 216.914062 169.246094 217.375 175.8125 212.5625 179.589844 C 207.125 183.851562 196.808594 181.167969 191.257812 179.242188 C 188.816406 178.394531 186.183594 178.394531 183.742188 179.242188 C 178.1875 181.167969 167.871094 183.851562 162.4375 179.589844 C 157.621094 175.8125 158.082031 169.246094 159.09375 164.882812 Z M 107.90625 223.097656 C 143.996094 221.09375 173.066406 246.753906 173.066406 246.753906 C 164.84375 234.726562 153.21875 224.5 153.21875 224.5 C 156.644531 225.585938 159.914062 226.921875 163.015625 228.433594 C 166.140625 229.960938 169.089844 231.660156 171.851562 233.457031 C 176.636719 238.609375 180.03125 242.746094 180.03125 242.746094 C 179.78125 241.339844 179.460938 239.984375 179.089844 238.667969 C 173.898438 220.15625 157.828125 210.667969 157.828125 210.667969 L 158.414062 210.96875 L 172.664062 218.285156 L 157.828125 203.046875 L 162.226562 198.203125 C 173.300781 212.277344 187.5 216.882812 187.5 216.882812 C 187.5 216.882812 201.695312 212.277344 212.769531 198.203125 L 217.167969 203.046875 L 202.335938 218.285156 L 216.589844 210.964844 C 212.035156 213.34375 181.355469 230.316406 177.277344 257.78125 C 177.277344 257.78125 194.515625 233.121094 221.785156 224.5 C 221.785156 224.5 210.15625 234.726562 201.9375 246.753906 C 201.9375 246.753906 231.003906 221.09375 267.09375 223.097656 L 234.214844 205.652344 L 237.621094 214.675781 L 231.203125 203.851562 L 220.78125 199.238281 L 217.953125 190.351562 C 222.121094 182.773438 225.15625 173.25 225.59375 161.347656 C 225.636719 160.214844 225.632812 159.128906 225.621094 158.054688 C 230.203125 171.75 223.585938 190.617188 223.585938 190.617188 L 234.015625 181.59375 C 236.167969 163.835938 229.667969 153.238281 224.589844 147.835938 C 224.429688 147.050781 224.257812 146.296875 224.066406 145.550781 C 243.03125 156.277344 239.429688 181.59375 239.429688 181.59375 L 251.855469 170.570312 C 245.734375 147.097656 230.398438 141.757812 222.476562 140.589844 C 213.34375 117.515625 187.5 117.238281 187.5 117.238281 C 187.5 117.238281 147.800781 117.636719 149.402344 161.347656 C 149.84375 173.25 152.875 182.773438 157.042969 190.351562 L 154.21875 199.238281 L 143.792969 203.851562 L 137.378906 214.675781 L 140.785156 205.652344 L 107.90625 223.097656 " fill-opacity="1" fill-rule="nonzero"/></g></svg>