<svg xmlns="http://www.w3.org/2000/svg" xmlns:xlink="http://www.w3.org/1999/xlink" width="500" zoomAndPan="magnify" viewBox="0 0 375 374.999991" height="500" preserveAspectRatio="xMidYMid meet" version="1.0"><defs><clipPath id="1823402197"><path d="M 10 150 L 365 150 L 365 225.410156 L 10 225.410156 Z M 10 150 " clip-rule="nonzero"/></clipPath><clipPath id="cfe806da6a"><path d="M 20.265625 39.707031 L 354.335938 39.707031 L 354.335938 335.957031 L 20.265625 335.957031 Z M 20.265625 39.707031 " clip-rule="nonzero"/></clipPath></defs><g clip-path="url(#1823402197)"><path fill="#590707" d="M 339.824219 429.894531 C 292.238281 404.265625 246.96875 371.175781 189.167969 323.628906 C 190.355469 322.652344 191.542969 321.675781 192.738281 320.691406 C 248.34375 366.65625 298.550781 403.15625 336.464844 423.195312 C 347.828125 429.203125 356.792969 430.351562 362.027344 431.765625 C 355.023438 432.222656 340.359375 427.269531 339.824219 429.894531 Z M 185.863281 323.628906 C 128.066406 371.175781 82.796875 404.265625 35.210938 429.894531 C 34.671875 427.269531 20.011719 432.222656 13.007812 431.765625 C 18.242188 430.351562 27.203125 429.203125 38.570312 423.195312 C 76.484375 403.15625 126.691406 366.65625 182.292969 320.691406 C 182.84375 320.234375 183.398438 319.777344 183.949219 319.320312 C 185.132812 318.335938 186.324219 317.351562 187.515625 316.359375 C 189.613281 314.613281 191.722656 312.851562 193.835938 311.074219 C 212.570312 295.363281 231.851562 278.652344 251.417969 261.207031 C 251.574219 261.066406 250.890625 257.375 250.488281 254.890625 L 257.703125 263.027344 C 235.984375 281.640625 216.042969 298.585938 197.421875 314.070312 C 195.296875 315.835938 193.179688 317.589844 191.085938 319.320312 C 189.886719 320.308594 188.699219 321.292969 187.515625 322.265625 C 186.964844 322.71875 186.414062 323.171875 185.863281 323.628906 Z M 117.332031 263.027344 L 124.542969 254.890625 C 124.144531 257.375 123.460938 261.066406 123.617188 261.207031 C 143.183594 278.652344 162.464844 295.363281 181.199219 311.074219 C 179.996094 312.078125 178.804688 313.074219 177.609375 314.070312 C 158.992188 298.585938 139.046875 281.640625 117.332031 263.027344 Z M 115.9375 263 C 114.65625 261.898438 113.363281 260.789062 112.070312 259.675781 C 110.609375 258.421875 109.144531 257.164062 107.667969 255.890625 C 110.691406 252.308594 113.71875 248.902344 116.917969 245.542969 C 117.34375 245.929688 117.78125 246.328125 118.234375 246.738281 C 120.347656 248.664062 122.636719 250.765625 124.621094 252.546875 C 124.683594 252.601562 124.746094 252.660156 124.804688 252.710938 C 124.851562 252.753906 124.898438 252.796875 124.945312 252.839844 L 124.800781 253.003906 L 116.523438 262.34375 Z M 106.113281 256.277344 C 106.113281 256.277344 106.109375 256.285156 106.105469 256.285156 C 104.277344 258.492188 102.414062 260.820312 100.503906 263.273438 L 99.203125 262.136719 C 100.898438 260.03125 102.578125 257.96875 104.222656 255.96875 C 106.320312 253.421875 108.363281 250.984375 110.335938 248.707031 L 111.160156 249.535156 L 111.546875 249.921875 C 111 250.539062 110.449219 251.167969 109.894531 251.8125 C 108.652344 253.242188 107.394531 254.730469 106.113281 256.277344 Z M 102.761719 253.195312 L 99.429688 250.175781 L 103.511719 245.648438 L 107.96875 240.703125 L 108.523438 240.085938 L 109.757812 238.722656 L 110.1875 238.242188 L 110.492188 237.902344 L 114.503906 241.511719 L 113.671875 242.449219 L 112.449219 243.824219 L 111.820312 244.539062 L 107.5625 249.332031 L 103.523438 253.886719 Z M 96.96875 236.925781 L 88.664062 238.722656 L 90.835938 231.976562 L 99.5 229.554688 Z M 87.132812 228 L 79.222656 230.046875 C 79.132812 229.96875 81.113281 223.148438 81.113281 223.148438 L 89.621094 220.769531 Z M 77.417969 219.167969 L 70.386719 220.992188 L 72.777344 213.570312 L 80.039062 211.539062 Z M 69.078125 209.59375 L 60.460938 211.820312 L 62.914062 204.234375 L 71.285156 201.898438 C 71.394531 202.003906 69.078125 209.59375 69.078125 209.59375 Z M 59.214844 200.253906 L 50.6875 202.46875 L 53.121094 194.925781 L 61.695312 192.527344 C 61.738281 192.570312 59.214844 200.253906 59.214844 200.253906 Z M 49.429688 190.945312 L 40.75 193.191406 L 40.535156 192.953125 C 40.539062 192.875 40.554688 192.789062 40.566406 192.707031 L 43.265625 184.320312 L 51.199219 182.105469 C 51.511719 182.417969 49.429688 190.945312 49.429688 190.945312 Z M 39.570312 180.339844 L 31.457031 182.441406 L 33.90625 174.832031 L 41.835938 172.617188 C 41.933594 172.714844 39.570312 180.339844 39.570312 180.339844 Z M 30.207031 170.855469 L 22.742188 172.785156 L 25.152344 165.289062 L 32.710938 163.175781 C 32.710938 163.304688 30.207031 170.855469 30.207031 170.855469 Z M 21.460938 161.3125 L 15.746094 162.796875 L 16.324219 161.011719 L 17.5 157.347656 L 21.207031 156.308594 L 23.386719 155.699219 Z M 11.980469 160.351562 L 11.980469 160.355469 C 11.398438 159.820312 11.089844 159.253906 11.089844 158.601562 C 11.089844 157.207031 12.515625 155.425781 15.785156 152.757812 C 14.640625 153.996094 13.84375 155.125 13.28125 156.117188 C 13.148438 156.492188 13.109375 156.835938 13.28125 156.984375 C 16.125 153.886719 18.9375 151.65625 20.671875 152.21875 L 20.222656 152.636719 L 18.503906 154.25 L 14.199219 158.273438 Z M 100.828125 240.855469 L 108.234375 238.785156 L 99.71875 248.234375 Z M 250.230469 252.710938 C 250.285156 252.660156 250.347656 252.601562 250.410156 252.546875 C 252.394531 250.765625 254.6875 248.664062 256.800781 246.738281 C 257.25 246.328125 257.691406 245.929688 258.117188 245.542969 C 261.316406 248.902344 264.34375 252.308594 267.367188 255.890625 C 265.890625 257.164062 264.425781 258.421875 262.964844 259.675781 C 261.667969 260.789062 260.378906 261.898438 259.09375 263 L 258.511719 262.34375 L 250.230469 253.003906 L 250.089844 252.839844 C 250.132812 252.796875 250.179688 252.753906 250.230469 252.710938 Z M 264.542969 237.902344 L 264.847656 238.242188 L 265.277344 238.722656 L 266.511719 240.085938 L 267.066406 240.703125 L 271.523438 245.648438 L 275.601562 250.175781 L 272.273438 253.195312 L 271.511719 253.886719 L 267.472656 249.332031 L 263.214844 244.539062 L 262.585938 243.824219 L 261.363281 242.449219 L 260.53125 241.511719 Z M 274.207031 240.855469 L 275.3125 248.234375 L 266.796875 238.785156 Z M 284.199219 231.976562 L 286.371094 238.722656 L 278.066406 236.925781 L 275.535156 229.554688 Z M 293.917969 223.148438 C 293.917969 223.148438 295.898438 229.96875 295.8125 230.046875 L 287.902344 228 L 285.414062 220.769531 Z M 302.257812 213.570312 L 304.648438 220.992188 L 297.617188 219.167969 L 294.996094 211.539062 Z M 303.75 201.898438 L 312.121094 204.234375 L 314.570312 211.820312 L 305.953125 209.59375 C 305.953125 209.59375 303.640625 202.003906 303.75 201.898438 Z M 321.910156 194.925781 L 324.34375 202.46875 L 315.820312 200.253906 C 315.820312 200.253906 313.296875 192.570312 313.339844 192.527344 Z M 323.832031 182.105469 L 331.769531 184.320312 L 334.46875 192.707031 C 334.480469 192.789062 334.496094 192.875 334.5 192.953125 L 334.285156 193.191406 L 325.605469 190.945312 C 325.605469 190.945312 323.519531 182.417969 323.832031 182.105469 Z M 333.195312 172.617188 L 341.128906 174.832031 L 343.578125 182.441406 L 335.460938 180.339844 C 335.460938 180.339844 333.101562 172.714844 333.195312 172.617188 Z M 349.882812 165.289062 L 352.292969 172.785156 L 344.824219 170.855469 C 344.824219 170.855469 342.320312 163.304688 342.320312 163.175781 Z M 353.824219 156.308594 L 357.535156 157.347656 L 358.710938 161.011719 L 359.289062 162.796875 L 353.574219 161.3125 L 351.644531 155.699219 Z M 361.753906 156.984375 C 361.925781 156.835938 361.886719 156.492188 361.753906 156.117188 C 361.1875 155.125 360.394531 153.996094 359.25 152.757812 C 364.046875 156.675781 364.875 158.671875 363.054688 160.355469 L 363.054688 160.351562 L 360.835938 158.273438 L 356.53125 154.25 L 354.8125 152.636719 L 354.359375 152.21875 C 356.09375 151.65625 358.90625 153.886719 361.753906 156.984375 Z M 275.832031 262.136719 L 274.53125 263.273438 C 272.621094 260.820312 270.753906 258.492188 268.929688 256.285156 C 268.925781 256.285156 268.921875 256.277344 268.921875 256.277344 C 267.640625 254.730469 266.382812 253.242188 265.140625 251.8125 C 264.582031 251.167969 264.035156 250.539062 263.488281 249.921875 L 263.875 249.535156 L 264.699219 248.707031 C 266.671875 250.984375 268.710938 253.421875 270.808594 255.96875 C 272.457031 257.96875 274.136719 260.03125 275.832031 262.136719 Z M 199.082031 315.449219 C 217.722656 300.003906 237.617188 283.140625 259.160156 264.667969 C 262.144531 262.109375 265.164062 259.519531 268.210938 256.898438 C 270.210938 259.292969 272.21875 261.769531 274.289062 264.378906 L 277.230469 261.902344 C 275.324219 259.578125 273.476562 257.34375 271.667969 255.195312 L 276.765625 250.601562 L 276.035156 249.785156 C 276.34375 249.503906 276.652344 249.21875 276.960938 248.9375 C 277.371094 248.566406 277.777344 248.191406 278.191406 247.820312 C 281.746094 245.808594 283.855469 243.363281 286.320312 240.355469 C 286.46875 240.21875 286.617188 240.082031 286.765625 239.941406 C 286.980469 239.742188 287.199219 239.542969 287.410156 239.34375 C 287.699219 239.082031 287.980469 238.816406 288.269531 238.554688 C 291.347656 236.339844 293.671875 234.457031 295.613281 231.714844 C 295.886719 231.460938 296.164062 231.203125 296.433594 230.949219 C 296.640625 230.753906 296.84375 230.5625 297.046875 230.367188 C 297.414062 230.027344 297.769531 229.6875 298.132812 229.347656 C 300.636719 227.703125 302.59375 226.195312 304.246094 223.570312 C 304.5625 223.273438 304.875 222.972656 305.1875 222.675781 C 305.613281 222.273438 306.039062 221.867188 306.464844 221.464844 C 306.910156 221.039062 307.355469 220.609375 307.800781 220.183594 C 310.0625 218.644531 311.5625 216.953125 313.304688 214.898438 C 313.875 214.34375 314.453125 213.789062 315.023438 213.234375 C 315.375 212.894531 315.722656 212.558594 316.070312 212.214844 C 316.445312 211.851562 316.8125 211.492188 317.1875 211.128906 C 320.53125 208.972656 322.878906 206.660156 325.128906 203.335938 C 325.164062 203.304688 325.195312 203.273438 325.226562 203.242188 C 328.765625 200.519531 331.742188 197.835938 335.066406 193.398438 C 339.125 190.289062 341.222656 187.707031 344.28125 183.933594 C 344.585938 183.617188 344.890625 183.300781 345.191406 182.984375 C 348.324219 180.191406 350.511719 178.019531 352.78125 174.980469 C 352.835938 174.921875 352.890625 174.867188 352.945312 174.804688 C 353.410156 174.308594 353.871094 173.8125 354.328125 173.320312 C 354.472656 173.167969 354.605469 173.023438 354.746094 172.875 C 357.601562 170.277344 360.109375 167.636719 361.539062 165.453125 C 362.046875 164.894531 362.558594 164.332031 363.058594 163.773438 C 363.105469 163.726562 363.152344 163.675781 363.195312 163.625 C 363.785156 162.964844 363.925781 162.070312 363.652344 161.292969 L 363.914062 161.019531 C 365.304688 159.578125 365.257812 157.28125 363.816406 155.890625 L 358.894531 151.15625 C 357.449219 149.769531 355.15625 149.8125 353.765625 151.253906 L 353.363281 151.671875 C 353.140625 151.613281 352.917969 151.578125 352.6875 151.585938 C 352.0625 151.609375 351.472656 151.878906 351.054688 152.332031 C 350.917969 152.480469 350.78125 152.628906 350.640625 152.773438 L 350.636719 152.773438 C 350.296875 153.144531 349.953125 153.511719 349.609375 153.878906 C 348.074219 154.5 343.0625 158.859375 341.828125 162.121094 C 340.574219 162.890625 334.816406 167.515625 332.519531 171.765625 C 328.90625 174.414062 325.71875 177.835938 322.503906 181.902344 C 318.226562 185.644531 315.394531 188.164062 312.140625 192.195312 C 308.523438 194.835938 305.667969 197.167969 302.546875 201.5625 C 299.09375 204.390625 296.386719 206.34375 294.304688 209.53125 C 290.328125 212.773438 287.808594 215.132812 284.710938 218.71875 C 280.386719 222.230469 277.546875 224.582031 274.996094 227.976562 C 271.234375 230.917969 268.683594 233.253906 266.128906 236.394531 C 265.738281 236.761719 265.355469 237.128906 264.964844 237.5 L 264.289062 236.757812 L 259.300781 241.253906 C 257.421875 239.289062 255.570312 237.445312 253.726562 235.726562 L 250.785156 238.203125 C 253.054688 240.367188 255.191406 242.5 257.257812 244.648438 C 254.300781 247.316406 251.363281 249.964844 248.445312 252.582031 C 227.164062 271.667969 206.984375 289.332031 187.515625 305.761719 C 168.050781 289.332031 147.867188 271.667969 126.589844 252.582031 C 123.671875 249.964844 120.730469 247.316406 117.773438 244.648438 C 119.839844 242.5 121.980469 240.367188 124.25 238.203125 L 121.308594 235.726562 C 119.464844 237.445312 117.613281 239.289062 115.730469 241.253906 L 110.742188 236.757812 L 110.070312 237.5 C 109.675781 237.128906 109.296875 236.761719 108.902344 236.394531 C 106.351562 233.253906 103.796875 230.917969 100.039062 227.976562 C 97.488281 224.582031 94.648438 222.230469 90.324219 218.71875 C 87.226562 215.132812 84.707031 212.773438 80.730469 209.53125 C 78.648438 206.34375 75.941406 204.390625 72.488281 201.5625 C 69.363281 197.167969 66.511719 194.835938 62.894531 192.195312 C 59.640625 188.164062 56.808594 185.644531 52.53125 181.902344 C 49.316406 177.835938 46.125 174.414062 42.515625 171.765625 C 40.21875 167.515625 34.460938 162.890625 33.207031 162.121094 C 31.96875 158.859375 26.960938 154.5 25.425781 153.878906 C 25.082031 153.511719 24.738281 153.144531 24.398438 152.773438 L 24.394531 152.773438 C 24.253906 152.628906 24.117188 152.480469 23.980469 152.332031 C 23.5625 151.878906 22.96875 151.609375 22.347656 151.585938 C 22.117188 151.578125 21.894531 151.613281 21.671875 151.671875 L 21.265625 151.253906 C 19.878906 149.8125 17.585938 149.769531 16.140625 151.15625 L 11.214844 155.890625 C 9.777344 157.28125 9.730469 159.578125 11.117188 161.019531 L 11.378906 161.292969 C 11.105469 162.070312 11.246094 162.964844 11.839844 163.625 C 11.878906 163.675781 11.929688 163.726562 11.972656 163.773438 C 12.476562 164.332031 12.988281 164.894531 13.496094 165.453125 C 14.925781 167.636719 17.433594 170.277344 20.289062 172.875 C 20.429688 173.023438 20.5625 173.167969 20.703125 173.320312 C 21.160156 173.8125 21.625 174.308594 22.089844 174.804688 C 22.144531 174.867188 22.199219 174.921875 22.253906 174.980469 C 24.523438 178.019531 26.710938 180.191406 29.839844 182.984375 C 30.144531 183.300781 30.445312 183.617188 30.753906 183.933594 C 33.8125 187.707031 35.910156 190.289062 39.96875 193.398438 C 43.292969 197.835938 46.265625 200.519531 49.808594 203.242188 C 49.839844 203.273438 49.871094 203.304688 49.90625 203.335938 C 52.15625 206.660156 54.503906 208.972656 57.847656 211.128906 C 58.21875 211.492188 58.589844 211.851562 58.964844 212.214844 C 59.3125 212.558594 59.660156 212.894531 60.007812 213.234375 C 60.582031 213.789062 61.160156 214.34375 61.730469 214.898438 C 63.472656 216.953125 64.96875 218.644531 67.230469 220.183594 C 67.679688 220.609375 68.125 221.039062 68.570312 221.464844 C 68.996094 221.867188 69.417969 222.273438 69.847656 222.675781 C 70.15625 222.972656 70.472656 223.273438 70.789062 223.570312 C 72.441406 226.195312 74.394531 227.703125 76.902344 229.347656 C 77.265625 229.6875 77.621094 230.027344 77.988281 230.367188 C 78.191406 230.5625 78.394531 230.753906 78.597656 230.949219 C 78.867188 231.203125 79.148438 231.460938 79.421875 231.714844 C 81.363281 234.457031 83.6875 236.339844 86.765625 238.554688 C 87.054688 238.816406 87.335938 239.082031 87.625 239.34375 C 87.835938 239.542969 88.054688 239.742188 88.265625 239.941406 C 88.417969 240.082031 88.566406 240.21875 88.714844 240.355469 C 91.179688 243.363281 93.289062 245.808594 96.84375 247.820312 C 97.253906 248.191406 97.664062 248.566406 98.074219 248.9375 C 98.382812 249.21875 98.691406 249.503906 99 249.785156 L 98.269531 250.601562 L 103.367188 255.195312 C 101.558594 257.34375 99.710938 259.578125 97.804688 261.902344 L 100.746094 264.378906 C 102.816406 261.769531 104.824219 259.292969 106.824219 256.898438 C 109.871094 259.519531 112.890625 262.109375 115.871094 264.667969 C 137.417969 283.140625 157.308594 300.003906 175.949219 315.449219 C 118.273438 363.375 66.398438 400.558594 10.105469 432.394531 C 15.765625 435.285156 27.652344 435.691406 33.960938 432.351562 C 82.035156 406.902344 128.628906 373.222656 187.515625 324.980469 C 246.40625 373.222656 293 406.902344 341.074219 432.351562 C 347.378906 435.691406 359.265625 435.285156 364.929688 432.394531 C 308.636719 400.558594 256.757812 363.375 199.082031 315.449219 " fill-opacity="1" fill-rule="nonzero"/></g><g clip-path="url(#cfe806da6a)"><path fill="#8f0c0c" d="M 118.519531 110.222656 C 128.628906 61.25 176.335938 51.136719 176.335938 51.136719 C 135.894531 73.253906 118.519531 110.222656 118.519531 110.222656 Z M 127.8125 139.984375 C 128.953125 135.058594 134.335938 132.445312 138.917969 134.589844 L 179.847656 153.742188 C 184.695312 156.007812 190.296875 156.007812 195.148438 153.742188 L 236.074219 134.589844 C 240.65625 132.445312 246.039062 135.058594 247.179688 139.984375 C 249.304688 149.144531 250.273438 162.945312 240.15625 170.878906 C 228.738281 179.839844 207.058594 174.195312 195.394531 170.152344 C 190.265625 168.367188 184.734375 168.367188 179.601562 170.152344 C 167.9375 174.195312 146.257812 179.839844 134.839844 170.878906 C 124.722656 162.945312 125.691406 149.144531 127.8125 139.984375 Z M 20.265625 262.289062 C 96.089844 258.078125 157.175781 312 157.175781 312 C 139.894531 286.722656 115.46875 265.242188 115.46875 265.242188 C 122.667969 267.519531 129.539062 270.332031 136.054688 273.507812 C 142.621094 276.710938 148.820312 280.289062 154.625 284.058594 C 164.679688 294.882812 171.804688 303.574219 171.804688 303.574219 C 171.28125 300.625 170.613281 297.777344 169.828125 295.011719 C 158.921875 256.113281 125.15625 236.175781 125.15625 236.175781 L 126.390625 236.804688 L 156.324219 252.179688 L 125.15625 220.167969 L 134.402344 209.992188 C 157.667969 239.554688 187.496094 249.234375 187.496094 249.234375 C 187.496094 249.234375 217.328125 239.554688 240.597656 209.992188 L 249.835938 220.167969 L 218.671875 252.179688 L 248.617188 236.804688 C 239.046875 241.800781 174.589844 277.464844 166.019531 335.167969 C 166.019531 335.167969 202.242188 283.355469 259.535156 265.242188 C 259.535156 265.242188 235.101562 286.722656 217.832031 312 C 217.832031 312 278.902344 258.078125 354.730469 262.289062 L 285.648438 225.640625 L 292.808594 244.597656 L 279.328125 221.851562 L 257.425781 212.164062 L 251.484375 193.492188 C 260.246094 177.566406 266.617188 157.558594 267.535156 132.554688 C 267.625 130.171875 267.621094 127.886719 267.59375 125.632812 C 277.222656 154.402344 263.320312 194.050781 263.320312 194.050781 L 285.234375 175.09375 C 289.753906 137.78125 276.097656 115.511719 265.429688 104.164062 C 265.09375 102.515625 264.730469 100.925781 264.328125 99.363281 C 304.171875 121.898438 296.605469 175.09375 296.605469 175.09375 L 322.714844 151.925781 C 309.851562 102.609375 277.632812 91.394531 260.992188 88.9375 C 241.800781 40.457031 187.496094 39.875 187.496094 39.875 C 187.496094 39.875 104.089844 40.714844 107.453125 132.554688 C 108.378906 157.558594 114.75 177.566406 123.507812 193.492188 L 117.570312 212.164062 L 95.664062 221.851562 L 82.1875 244.597656 L 89.347656 225.640625 L 20.265625 262.289062 " fill-opacity="1" fill-rule="nonzero"/></g></svg>